<?xml version="1.0" encoding="UTF-8" standalone="no"?>
<!-- Created with Inkscape (http://www.inkscape.org/) -->

<svg
   xmlns:dc="http://purl.org/dc/elements/1.1/"
   xmlns:cc="http://creativecommons.org/ns#"
   xmlns:rdf="http://www.w3.org/1999/02/22-rdf-syntax-ns#"
   xmlns:svg="http://www.w3.org/2000/svg"
   xmlns="http://www.w3.org/2000/svg"
   xmlns:sodipodi="http://sodipodi.sourceforge.net/DTD/sodipodi-0.dtd"
   xmlns:inkscape="http://www.inkscape.org/namespaces/inkscape"
   width="400pt"
   height="400pt"
   viewBox="0 0 141.11112 141.11111"
   version="1.1"
   id="svg869"
   inkscape:version="0.92.4 (5da689c313, 2019-01-14)"
   sodipodi:docname="ResetButton.svg"
   inkscape:export-filename="C:\Users\Nick\Unity Projects\URP-Start1\Assets\DiceArt\Reset.png"
   inkscape:export-xdpi="255.089"
   inkscape:export-ydpi="255.089">
  <defs
     id="defs863">
    <inkscape:perspective
       sodipodi:type="inkscape:persp3d"
       inkscape:vp_x="17.506156 : 105.7015 : 1"
       inkscape:vp_y="0 : 1000 : 0"
       inkscape:vp_z="67.745627 : 96.614335 : 1"
       inkscape:persp3d-origin="70.55556 : 47.037037 : 1"
       id="perspective1414" />
  </defs>
  <sodipodi:namedview
     id="base"
     pagecolor="#ffffff"
     bordercolor="#666666"
     borderopacity="1.0"
     inkscape:pageopacity="0.0"
     inkscape:pageshadow="2"
     inkscape:zoom="3.3632813"
     inkscape:cx="190.58636"
     inkscape:cy="228.91611"
     inkscape:document-units="pt"
     inkscape:current-layer="layer5"
     showgrid="false"
     units="pt"
     inkscape:window-width="2560"
     inkscape:window-height="1377"
     inkscape:window-x="-8"
     inkscape:window-y="-8"
     inkscape:window-maximized="1" />
  <metadata
     id="metadata866">
    <rdf:RDF>
      <cc:Work
         rdf:about="">
        <dc:format>image/svg+xml</dc:format>
        <dc:type
           rdf:resource="http://purl.org/dc/dcmitype/StillImage" />
        <dc:title></dc:title>
      </cc:Work>
    </rdf:RDF>
  </metadata>
  <g
     inkscape:groupmode="layer"
     id="layer5"
     inkscape:label="Layer 2"
     style="display:none">
    <rect
       style="opacity:1;fill:#000000;fill-opacity:0.57788942;stroke:#000000;stroke-width:0.30009559;stroke-miterlimit:4;stroke-dasharray:none;stroke-dashoffset:0;stroke-opacity:1"
       id="rect1430"
       width="42.949131"
       height="46.972076"
       x="15.401681"
       y="41.586906"
       ry="3.2209423" />
  </g>
  <g
     inkscape:label="Layer 1"
     inkscape:groupmode="layer"
     id="layer1"
     transform="translate(0,-155.8889)"
     style="display:inline">
    <rect
       style="opacity:1;fill:#000000;fill-opacity:1;stroke:#ffffff;stroke-width:0.30086678;stroke-miterlimit:4;stroke-dasharray:none;stroke-dashoffset:0;stroke-opacity:0.97989951"
       id="rect1430-6"
       width="43.170868"
       height="46.971306"
       x="12.595736"
       y="200.28252"
       ry="3.2208896" />
    <text
       xml:space="preserve"
       style="font-style:normal;font-variant:normal;font-weight:normal;font-stretch:normal;font-size:14.50875378px;line-height:1.25;font-family:SWItalt;-inkscape-font-specification:SWItalt;letter-spacing:0px;word-spacing:0px;fill:#000000;fill-opacity:1;stroke:none;stroke-width:1.08815658"
       x="37.562939"
       y="228.70113"
       id="text1457"><tspan
         sodipodi:role="line"
         id="tspan1455"
         x="37.562939"
         y="241.15141"
         style="font-style:normal;font-variant:normal;font-weight:normal;font-stretch:normal;font-family:'Goudy Stout';-inkscape-font-specification:'Goudy Stout';fill:#ffffff;fill-opacity:1;stroke-width:1.08815658" /></text>
    <flowRoot
       xml:space="preserve"
       id="flowRoot1459"
       style="font-style:normal;font-variant:normal;font-weight:normal;font-stretch:normal;font-size:13.33333302px;line-height:1.25;font-family:SWItalt;-inkscape-font-specification:SWItalt;letter-spacing:0px;word-spacing:0px;fill:#000000;fill-opacity:1;stroke:none"><flowRegion
         id="flowRegion1461"><rect
           id="rect1463"
           width="16.667517"
           height="29.7995"
           x="172.73608"
           y="45.934711" /></flowRegion><flowPara
         id="flowPara1465" /></flowRoot>    <path
       id="rect871"
       style="opacity:1;fill:#ffffff;fill-opacity:1;stroke:none;stroke-width:5.12287092;stroke-miterlimit:4;stroke-dasharray:none;stroke-dashoffset:0;stroke-opacity:0.94685992"
       d="m 29.914644,200.53166 c -0.005,2.7e-4 -0.02713,0.003 -0.0083,0.002 0.0035,-5.3e-4 0.0069,-0.002 0.01035,-0.002 -5.3e-4,4e-5 -0.0016,-4e-5 -0.0021,0 z m 0.03824,0.72709 c -0.0027,-1.9e-4 -0.0065,0.002 -0.0093,0.003 -0.0011,8e-4 -0.0021,-4e-5 -0.0031,0 -0.0021,0.001 -0.0034,0.004 -0.0052,0.005 0.0067,-0.003 0.0127,-0.006 0.01757,-0.008 z m -1.703255,2.64583 -3.413229,8.7173 8.590172,3.36362 c 0.0519,-0.0784 0.105016,-0.15599 0.159682,-0.23254 0.06224,-0.0873 0.126947,-0.17295 0.19172,-0.25839 0.06043,-0.0802 0.121573,-0.1597 0.183451,-0.23874 0.05683,-0.0722 0.112556,-0.14513 0.168466,-0.21808 0.05677,-0.073 0.112283,-0.14698 0.167431,-0.22117 0.06145,-0.0824 0.123203,-0.16492 0.185002,-0.24702 0.06107,-0.0816 0.122099,-0.16287 0.183967,-0.24391 0.01032,-0.0134 0.02072,-0.0269 0.03101,-0.0403 0.06344,-0.0826 0.128175,-0.15442 0.193271,-0.22169 l -4.191477,-3.85971 0.03721,-6.20117 c -0.06872,-8e-4 -0.137409,-0.001 -0.206187,-0.003 l -0.288872,-0.003 -0.302308,-0.003 c -0.104952,-7.9e-4 -0.210272,-0.002 -0.315225,-0.002 -0.106505,-5.3e-4 -0.21287,-0.001 -0.319362,-0.003 l -0.298173,-0.006 c -0.106724,-0.001 -0.213354,-0.005 -0.319875,-0.0124 -0.118584,-0.007 -0.236686,-0.0236 -0.353468,-0.045 -0.02819,-0.005 -0.05545,-0.0142 -0.0832,-0.0212 z m 4.003507,3.91453 c -1.012306,0 -2.003383,0.0935 -2.966228,0.26872 0.194831,0.19482 0.386403,0.42336 0.570508,0.69143 0.05369,0.0782 0.107992,0.15631 0.160716,0.23513 0.06215,0.094 0.123544,0.18797 0.182933,0.2837 0.06355,0.10129 0.127674,0.20251 0.188618,0.30541 0.06516,0.1135 0.127519,0.22837 0.186553,0.3452 0.05371,0.10745 0.106204,0.21525 0.15503,0.32504 0.05342,0.12099 0.106899,0.24224 0.15141,0.3669 0.04587,0.1268 0.0895,0.25464 0.126093,0.38448 0.04009,0.1442 0.07677,0.28918 0.102835,0.43666 0.0078,0.0462 0.01159,0.0931 0.0186,0.13953 0.37008,-0.0318 0.891045,0.24968 1.122928,-0.0496 3.663347,-4.72828 13.894889,9.06338 13.894889,16.17559 0,7.11221 -6.838305,8.55471 -13.394247,10.83541 -6.13156,2.13306 -13.974416,-5.48783 -12.463868,-11.50646 -2.559661,-0.55747 -2.196052,-0.79644 -2.68949,-2.53248 -0.5648,4.74978 6.075549,16.4359 14.652716,16.4359 9.129314,0 16.570567,-7.44074 16.570567,-16.57005 0,-9.12931 -7.441253,-16.57057 -16.570567,-16.57057 z"
       inkscape:connector-curvature="0" />
  </g>
</svg>
