<?xml version="1.0" encoding="UTF-8" standalone="no"?>
<!-- Created with Inkscape (http://www.inkscape.org/) -->

<svg
   xmlns:dc="http://purl.org/dc/elements/1.1/"
   xmlns:cc="http://creativecommons.org/ns#"
   xmlns:rdf="http://www.w3.org/1999/02/22-rdf-syntax-ns#"
   xmlns:svg="http://www.w3.org/2000/svg"
   xmlns="http://www.w3.org/2000/svg"
   xmlns:sodipodi="http://sodipodi.sourceforge.net/DTD/sodipodi-0.dtd"
   xmlns:inkscape="http://www.inkscape.org/namespaces/inkscape"
   width="400pt"
   height="400pt"
   viewBox="0 0 141.11112 141.11111"
   version="1.1"
   id="svg869"
   inkscape:version="0.92.4 (5da689c313, 2019-01-14)"
   sodipodi:docname="X_Button.svg"
   inkscape:export-filename="C:\Users\Nick\Unity Projects\URP-Start1\Assets\DiceArt\X_Btn_Down.png"
   inkscape:export-xdpi="255.089"
   inkscape:export-ydpi="255.089">
  <defs
     id="defs863">
    <inkscape:perspective
       sodipodi:type="inkscape:persp3d"
       inkscape:vp_x="17.506156 : 105.7015 : 1"
       inkscape:vp_y="0 : 1000 : 0"
       inkscape:vp_z="67.745627 : 96.614335 : 1"
       inkscape:persp3d-origin="70.55556 : 47.037037 : 1"
       id="perspective1414" />
  </defs>
  <sodipodi:namedview
     id="base"
     pagecolor="#ffffff"
     bordercolor="#666666"
     borderopacity="1.0"
     inkscape:pageopacity="0.0"
     inkscape:pageshadow="2"
     inkscape:zoom="3.3632813"
     inkscape:cx="186.0833"
     inkscape:cy="293.71378"
     inkscape:document-units="pt"
     inkscape:current-layer="layer1"
     showgrid="false"
     units="pt"
     inkscape:window-width="2560"
     inkscape:window-height="1377"
     inkscape:window-x="-8"
     inkscape:window-y="-8"
     inkscape:window-maximized="1" />
  <metadata
     id="metadata866">
    <rdf:RDF>
      <cc:Work
         rdf:about="">
        <dc:format>image/svg+xml</dc:format>
        <dc:type
           rdf:resource="http://purl.org/dc/dcmitype/StillImage" />
        <dc:title></dc:title>
      </cc:Work>
    </rdf:RDF>
  </metadata>
  <g
     inkscape:groupmode="layer"
     id="layer5"
     inkscape:label="Layer 2"
     style="display:inline">
    <rect
       style="opacity:1;fill:#000000;fill-opacity:0.57788942;stroke:#000000;stroke-width:0.30009559;stroke-miterlimit:4;stroke-dasharray:none;stroke-dashoffset:0;stroke-opacity:1"
       id="rect1430"
       width="42.949131"
       height="46.972076"
       x="15.401681"
       y="41.586906"
       ry="3.2209423" />
  </g>
  <g
     inkscape:label="Layer 1"
     inkscape:groupmode="layer"
     id="layer1"
     transform="translate(0,-155.8889)"
     style="display:inline">
    <rect
       style="opacity:1;fill:#000000;fill-opacity:1;stroke:#ffffff;stroke-width:0.30086678;stroke-miterlimit:4;stroke-dasharray:none;stroke-dashoffset:0;stroke-opacity:0.97989951"
       id="rect1430-6"
       width="43.170868"
       height="46.971306"
       x="12.595736"
       y="200.28252"
       ry="3.2208896" />
    <text
       xml:space="preserve"
       style="font-style:normal;font-variant:normal;font-weight:normal;font-stretch:normal;font-size:14.50875378px;line-height:1.25;font-family:SWItalt;-inkscape-font-specification:SWItalt;letter-spacing:0px;word-spacing:0px;fill:#000000;fill-opacity:1;stroke:none;stroke-width:1.08815658"
       x="37.562939"
       y="228.70113"
       id="text1457"><tspan
         sodipodi:role="line"
         id="tspan1455"
         x="37.562939"
         y="241.15141"
         style="font-style:normal;font-variant:normal;font-weight:normal;font-stretch:normal;font-family:'Goudy Stout';-inkscape-font-specification:'Goudy Stout';fill:#ffffff;fill-opacity:1;stroke-width:1.08815658" /></text>
    <flowRoot
       xml:space="preserve"
       id="flowRoot1459"
       style="font-style:normal;font-variant:normal;font-weight:normal;font-stretch:normal;font-size:13.33333302px;line-height:1.25;font-family:SWItalt;-inkscape-font-specification:SWItalt;letter-spacing:0px;word-spacing:0px;fill:#000000;fill-opacity:1;stroke:none"><flowRegion
         id="flowRegion1461"><rect
           id="rect1463"
           width="16.667517"
           height="29.7995"
           x="172.73608"
           y="45.934711" /></flowRegion><flowPara
         id="flowPara1465" /></flowRoot>    <path
       style="opacity:1;fill:#ffffff;fill-opacity:1;stroke:none;stroke-width:19.36203003;stroke-miterlimit:4;stroke-dasharray:none;stroke-dashoffset:0;stroke-opacity:0.94685992"
       d="m 113.0625,168.72852 c -0.0189,0.001 -0.10242,0.0116 -0.0312,0.008 0.0132,-0.002 0.026,-0.008 0.0391,-0.008 -0.002,1.5e-4 -0.006,-1.6e-4 -0.008,0 z"
       transform="matrix(0.26458335,0,0,0.26458335,0,155.8889)"
       id="path902" />
    <path
       style="opacity:1;fill:#ffffff;fill-opacity:1;stroke:none;stroke-width:19.36203003;stroke-miterlimit:4;stroke-dasharray:none;stroke-dashoffset:0;stroke-opacity:0.94685992"
       d="m 113.20703,171.47656 c -0.0102,-7.2e-4 -0.0246,0.008 -0.0352,0.0117 -0.004,0.003 -0.008,-1.5e-4 -0.0117,0 -0.008,0.004 -0.0127,0.0138 -0.0195,0.0176 0.0253,-0.0113 0.048,-0.0217 0.0664,-0.0293 z"
       transform="matrix(0.26458335,0,0,0.26458335,0,155.8889)"
       id="path900" />
    <path
       style="opacity:1;fill:#ffffff;fill-opacity:1;stroke:none;stroke-width:11.52700329;stroke-miterlimit:4;stroke-dasharray:none;stroke-dashoffset:0;stroke-opacity:0.94685992"
       d="m 52.819628,204.14849 c -0.20306,0.0671 -0.406361,0.1334 -0.609944,0.19877 -0.216015,0.0691 -0.431928,0.13659 -0.647579,0.20656 -0.224938,0.0719 -0.44816,0.14792 -0.67211,0.22276 -0.231113,0.0772 -0.462877,0.15401 -0.693602,0.23232 -0.239487,0.0816 -0.479783,0.16243 -0.719659,0.24295 -0.236523,0.0793 -0.472721,0.15739 -0.709633,0.23553 -0.230649,0.0759 -0.46188,0.15146 -0.692916,0.22597 -0.140369,0.0465 -0.279751,0.0932 -0.419823,0.14009 -0.3481,0.11701 -0.669377,0.18234 -0.977229,0.22587 -2.138453,10.77012 -18.163843,28.36115 -29.743089,31.8199 -9.17e-4,0.0135 3.9e-4,0.0273 0.0016,0.0405 0.0036,0.33155 0.0013,0.66274 -0.002,0.99431 -0.0015,0.37233 -0.0094,0.7438 -0.01962,1.11597 -0.01215,0.3978 -0.02918,0.79602 -0.04436,1.1937 -0.01559,0.40065 -0.03559,0.80108 -0.05546,1.20155 -0.01279,0.23447 7.799389,1.67865 7.787577,1.91317 -0.270486,-6.81433 11.288765,-13.74623 28.218115,-40.21022 z"
       id="path913"
       inkscape:connector-curvature="0"
       sodipodi:nodetypes="ccccccccccccccccccc" />
    <path
       style="opacity:1;fill:#ffffff;fill-opacity:1;stroke:none;stroke-width:12.45121098;stroke-miterlimit:4;stroke-dasharray:none;stroke-dashoffset:0;stroke-opacity:0.94685992"
       d="m 17.723408,202.39849 c -0.362979,9.97608 13.160708,31.28208 30.144702,36.02445 0.02072,-0.0388 0.04001,-0.0783 0.06095,-0.11725 0.174319,-0.31965 0.348429,-0.63962 0.528893,-0.95586 0.189546,-0.33852 0.381447,-0.67571 0.575994,-1.01141 0.198347,-0.34033 0.399632,-0.67883 0.599366,-1.01837 0.109955,-0.18463 0.219184,-0.36996 0.328678,-0.55507 -13.134444,-0.34134 -27.288269,-14.26497 -25.220284,-26.76813 -6.311358,-0.84089 -5.477466,-1.49136 -7.018297,-5.59844 z"
       id="path924"
       inkscape:connector-curvature="0" />
  </g>
</svg>
